<mxfile host="app.diagrams.net" modified="2024-01-14T18:30:06.646Z" agent="Mozilla/5.0 (Windows NT 10.0; Win64; x64) AppleWebKit/537.36 (KHTML, like Gecko) Chrome/120.0.0.0 Safari/537.36" version="22.1.18" etag="3q1YGx3JJqTbpR69-Zq0" type="github">
  <diagram name="Сторінка-1" id="jZeI2RwoPZfNFVHcHrgq">
    <mxGraphModel>
      <root>
        <mxCell id="0" />
        <mxCell id="1" parent="0" />
      </root>
    </mxGraphModel>
  </diagram>
</mxfile>
